<svg id="visual" viewBox="0 0 900 900" width="900" height="900" xmlns="http://www.w3.org/2000/svg" xmlns:xlink="http://www.w3.org/1999/xlink" version="1.1"><g stroke-width="1" stroke-linejoin="bevel"><path d="M435.7 427L432.7 393.7L427 433.7Z" fill="#003651" stroke="#003651"></path><path d="M432.7 393.7L339.4 412L427 433.7Z" fill="#012f45" stroke="#012f45"></path><path d="M526.6 478L490 405L435.7 427Z" fill="#00324b" stroke="#00324b"></path><path d="M435.7 427L490 405L432.7 393.7Z" fill="#003a56" stroke="#003a56"></path><path d="M432.7 393.7L505.3 368.4L427 366.4Z" fill="#003e5c" stroke="#003e5c"></path><path d="M427 366.4L339.4 412L432.7 393.7Z" fill="#012f45" stroke="#012f45"></path><path d="M394 305.1L367.4 327.4L427 366.4Z" fill="#011926" stroke="#011926"></path><path d="M427 366.4L367.4 327.4L339.4 412Z" fill="#021c2b" stroke="#021c2b"></path><path d="M490 405L505.3 368.4L432.7 393.7Z" fill="#00324b" stroke="#00324b"></path><path d="M526.6 478L515.3 403L490 405Z" fill="#003a56" stroke="#003a56"></path><path d="M490 405L515.3 403L505.3 368.4Z" fill="#011926" stroke="#011926"></path><path d="M238.1 342.7L320.4 440.7L339.4 412Z" fill="#022030" stroke="#022030"></path><path d="M339.4 412L320.4 440.7L427 433.7Z" fill="#01273b" stroke="#01273b"></path><path d="M505.3 368.4L429.7 306.4L427 366.4Z" fill="#021c2b" stroke="#021c2b"></path><path d="M429.7 306.4L394 305.1L427 366.4Z" fill="#012435" stroke="#012435"></path><path d="M320.4 440.7L431 529.3L427 433.7Z" fill="#003a56" stroke="#003a56"></path><path d="M427 433.7L526.6 478L435.7 427Z" fill="#012435" stroke="#012435"></path><path d="M553.3 387.7L523.6 351.7L505.3 368.4Z" fill="#003a56" stroke="#003a56"></path><path d="M505.3 368.4L522.3 312.1L429.7 306.4Z" fill="#01273b" stroke="#01273b"></path><path d="M431 529.3L526.6 478L427 433.7Z" fill="#022030" stroke="#022030"></path><path d="M515.3 403L553.3 387.7L505.3 368.4Z" fill="#011926" stroke="#011926"></path><path d="M308.1 524.3L414.7 549.3L431 529.3Z" fill="#011926" stroke="#011926"></path><path d="M431 529.3L464.3 550.6L526.6 478Z" fill="#003651" stroke="#003651"></path><path d="M526.6 478L553.3 387.7L515.3 403Z" fill="#003e5c" stroke="#003e5c"></path><path d="M597.6 371.4L522.3 312.1L523.6 351.7Z" fill="#012f45" stroke="#012f45"></path><path d="M523.6 351.7L522.3 312.1L505.3 368.4Z" fill="#003651" stroke="#003651"></path><path d="M414.7 549.3L464.3 550.6L431 529.3Z" fill="#003e5c" stroke="#003e5c"></path><path d="M320.4 440.7L308.1 524.3L431 529.3Z" fill="#012435" stroke="#012435"></path><path d="M429.7 306.4L393.7 256.1L394 305.1Z" fill="#00324b" stroke="#00324b"></path><path d="M394 305.1L393.7 256.1L367.4 327.4Z" fill="#022030" stroke="#022030"></path><path d="M215.9 454L272.1 496L320.4 440.7Z" fill="#022030" stroke="#022030"></path><path d="M438.7 188.9L393.7 256.1L429.7 306.4Z" fill="#012b40" stroke="#012b40"></path><path d="M320.4 440.7L272.1 496L308.1 524.3Z" fill="#003e5c" stroke="#003e5c"></path><path d="M238.1 342.7L339.4 412L367.4 327.4Z" fill="#012435" stroke="#012435"></path><path d="M309.4 585.6L359.7 574.6L308.1 524.3Z" fill="#003a56" stroke="#003a56"></path><path d="M308.1 524.3L359.7 574.6L414.7 549.3Z" fill="#003a56" stroke="#003a56"></path><path d="M414.7 549.3L498 588.9L464.3 550.6Z" fill="#012f45" stroke="#012f45"></path><path d="M272.1 496L295.4 536.3L308.1 524.3Z" fill="#003a56" stroke="#003a56"></path><path d="M618.9 494L597.6 371.4L553.3 387.7Z" fill="#012435" stroke="#012435"></path><path d="M553.3 387.7L597.6 371.4L523.6 351.7Z" fill="#021c2b" stroke="#021c2b"></path><path d="M498 588.9L529.6 560.3L464.3 550.6Z" fill="#021c2b" stroke="#021c2b"></path><path d="M464.3 550.6L529.6 560.3L526.6 478Z" fill="#022030" stroke="#022030"></path><path d="M526.6 478L618.9 494L553.3 387.7Z" fill="#00324b" stroke="#00324b"></path><path d="M529.6 560.3L556.3 537.3L526.6 478Z" fill="#012f45" stroke="#012f45"></path><path d="M305.4 220.1L238.1 342.7L367.4 327.4Z" fill="#00324b" stroke="#00324b"></path><path d="M412.7 669.9L498 588.9L414.7 549.3Z" fill="#012435" stroke="#012435"></path><path d="M608.9 594.6L629.6 568.6L556.3 537.3Z" fill="#003651" stroke="#003651"></path><path d="M504 655.1L507 594.6L498 588.9Z" fill="#021c2b" stroke="#021c2b"></path><path d="M498 588.9L507 594.6L529.6 560.3Z" fill="#012f45" stroke="#012f45"></path><path d="M295.4 536.3L309.4 585.6L308.1 524.3Z" fill="#012f45" stroke="#012f45"></path><path d="M359.7 574.6L412.7 669.9L414.7 549.3Z" fill="#00324b" stroke="#00324b"></path><path d="M258.1 554.6L309.4 585.6L295.4 536.3Z" fill="#003e5c" stroke="#003e5c"></path><path d="M238.1 342.7L215.9 454L320.4 440.7Z" fill="#00324b" stroke="#00324b"></path><path d="M272.1 496L258.1 554.6L295.4 536.3Z" fill="#012435" stroke="#012435"></path><path d="M188.9 503.3L258.1 554.6L272.1 496Z" fill="#011926" stroke="#011926"></path><path d="M629.6 568.6L618.9 494L556.3 537.3Z" fill="#003a56" stroke="#003a56"></path><path d="M556.3 537.3L618.9 494L526.6 478Z" fill="#011926" stroke="#011926"></path><path d="M393.7 256.1L305.4 220.1L367.4 327.4Z" fill="#00324b" stroke="#00324b"></path><path d="M505 163.9L438.7 188.9L522.3 312.1Z" fill="#012435" stroke="#012435"></path><path d="M522.3 312.1L438.7 188.9L429.7 306.4Z" fill="#012f45" stroke="#012f45"></path><path d="M393.7 256.1L344.4 173.9L305.4 220.1Z" fill="#011926" stroke="#011926"></path><path d="M194.9 264.1L201.1 350.4L238.1 342.7Z" fill="#012435" stroke="#012435"></path><path d="M238.1 342.7L201.1 350.4L215.9 454Z" fill="#012435" stroke="#012435"></path><path d="M688.9 399.7L635.9 315.1L597.6 371.4Z" fill="#01273b" stroke="#01273b"></path><path d="M597.6 371.4L635.9 315.1L522.3 312.1Z" fill="#003a56" stroke="#003a56"></path><path d="M238.1 662.1L345.4 642.9L309.4 585.6Z" fill="#003a56" stroke="#003a56"></path><path d="M309.4 585.6L345.4 642.9L359.7 574.6Z" fill="#012435" stroke="#012435"></path><path d="M305.4 220.1L249.1 237.1L238.1 342.7Z" fill="#003651" stroke="#003651"></path><path d="M635.9 315.1L606.6 259.1L522.3 312.1Z" fill="#012f45" stroke="#012f45"></path><path d="M215.9 454L188.9 503.3L272.1 496Z" fill="#021c2b" stroke="#021c2b"></path><path d="M258.1 554.6L215.1 629.9L309.4 585.6Z" fill="#022030" stroke="#022030"></path><path d="M151.6 410L188.9 503.3L215.9 454Z" fill="#003651" stroke="#003651"></path><path d="M438.7 188.9L344.4 173.9L393.7 256.1Z" fill="#01273b" stroke="#01273b"></path><path d="M305.4 220.1L256.1 175.9L249.1 237.1Z" fill="#003e5c" stroke="#003e5c"></path><path d="M104.6 284.4L159.9 399.7L201.1 350.4Z" fill="#003e5c" stroke="#003e5c"></path><path d="M201.1 350.4L159.9 399.7L215.9 454Z" fill="#003e5c" stroke="#003e5c"></path><path d="M345.4 642.9L412.7 669.9L359.7 574.6Z" fill="#003a56" stroke="#003a56"></path><path d="M485.3 668.9L504 655.1L498 588.9Z" fill="#012435" stroke="#012435"></path><path d="M507 594.6L546.6 638.9L529.6 560.3Z" fill="#00324b" stroke="#00324b"></path><path d="M504 655.1L546.6 638.9L507 594.6Z" fill="#003a56" stroke="#003a56"></path><path d="M524.6 168.6L505 163.9L522.3 312.1Z" fill="#011926" stroke="#011926"></path><path d="M438.7 188.9L391 112.6L344.4 173.9Z" fill="#022030" stroke="#022030"></path><path d="M608.9 594.6L556.3 537.3L529.6 560.3Z" fill="#012435" stroke="#012435"></path><path d="M618.9 494L688.9 399.7L597.6 371.4Z" fill="#003651" stroke="#003651"></path><path d="M546.6 638.9L608.9 594.6L529.6 560.3Z" fill="#012435" stroke="#012435"></path><path d="M114.3 427.7L151.6 410L159.9 399.7Z" fill="#012b40" stroke="#012b40"></path><path d="M159.9 399.7L151.6 410L215.9 454Z" fill="#003651" stroke="#003651"></path><path d="M412.7 669.9L485.3 668.9L498 588.9Z" fill="#01273b" stroke="#01273b"></path><path d="M504 655.1L572.6 695.1L546.6 638.9Z" fill="#012435" stroke="#012435"></path><path d="M606.6 259.1L524.6 168.6L522.3 312.1Z" fill="#021c2b" stroke="#021c2b"></path><path d="M672.9 547.3L673.1 485L618.9 494Z" fill="#00324b" stroke="#00324b"></path><path d="M180.9 262.4L194.9 264.1L145.6 232.9Z" fill="#003a56" stroke="#003a56"></path><path d="M249.1 237.1L194.9 264.1L238.1 342.7Z" fill="#003e5c" stroke="#003e5c"></path><path d="M673.1 485L688.9 399.7L618.9 494Z" fill="#011926" stroke="#011926"></path><path d="M700.1 204.1L613.6 184.9L606.6 259.1Z" fill="#00324b" stroke="#00324b"></path><path d="M146.6 556.3L185.6 566.6L188.9 503.3Z" fill="#022030" stroke="#022030"></path><path d="M188.9 503.3L185.6 566.6L258.1 554.6Z" fill="#012435" stroke="#012435"></path><path d="M145.6 232.9L194.9 264.1L249.1 237.1Z" fill="#012b40" stroke="#012b40"></path><path d="M194.9 264.1L180.9 262.4L201.1 350.4Z" fill="#012b40" stroke="#012b40"></path><path d="M531.3 135.9L483.3 135.6L505 163.9Z" fill="#003651" stroke="#003651"></path><path d="M505 163.9L483.3 135.6L438.7 188.9Z" fill="#011926" stroke="#011926"></path><path d="M340.4 83.6L256.1 175.9L344.4 173.9Z" fill="#00324b" stroke="#00324b"></path><path d="M344.4 173.9L256.1 175.9L305.4 220.1Z" fill="#012b40" stroke="#012b40"></path><path d="M412.7 669.9L473.3 692.1L485.3 668.9Z" fill="#01273b" stroke="#01273b"></path><path d="M485.3 668.9L572.6 695.1L504 655.1Z" fill="#021c2b" stroke="#021c2b"></path><path d="M620.9 678.9L681.1 595.9L608.9 594.6Z" fill="#011926" stroke="#011926"></path><path d="M629.6 568.6L672.9 547.3L618.9 494Z" fill="#01273b" stroke="#01273b"></path><path d="M673.1 485L700.1 488.3L688.9 399.7Z" fill="#022030" stroke="#022030"></path><path d="M681.1 595.9L672.9 547.3L629.6 568.6Z" fill="#021c2b" stroke="#021c2b"></path><path d="M672.9 547.3L700.1 488.3L673.1 485Z" fill="#011926" stroke="#011926"></path><path d="M185.6 566.6L215.1 629.9L258.1 554.6Z" fill="#012b40" stroke="#012b40"></path><path d="M364.7 777.4L460 716.4L412.7 669.9Z" fill="#00324b" stroke="#00324b"></path><path d="M412.7 669.9L460 716.4L473.3 692.1Z" fill="#021c2b" stroke="#021c2b"></path><path d="M524.6 168.6L531.3 135.9L505 163.9Z" fill="#01273b" stroke="#01273b"></path><path d="M613.6 184.9L531.3 135.9L524.6 168.6Z" fill="#00324b" stroke="#00324b"></path><path d="M699.9 300.4L606.6 259.1L635.9 315.1Z" fill="#003651" stroke="#003651"></path><path d="M606.6 259.1L613.6 184.9L524.6 168.6Z" fill="#003e5c" stroke="#003e5c"></path><path d="M378.7 112.6L391 112.6L366.7 59.3Z" fill="#021c2b" stroke="#021c2b"></path><path d="M483.3 135.6L391 112.6L438.7 188.9Z" fill="#012b40" stroke="#012b40"></path><path d="M391 112.6L378.7 112.6L344.4 173.9Z" fill="#012435" stroke="#012435"></path><path d="M185.6 566.6L209.9 632.6L215.1 629.9Z" fill="#012f45" stroke="#012f45"></path><path d="M215.1 629.9L238.1 662.1L309.4 585.6Z" fill="#012f45" stroke="#012f45"></path><path d="M104.6 284.4L114.3 427.7L159.9 399.7Z" fill="#022030" stroke="#022030"></path><path d="M151.6 410L111.6 439.7L188.9 503.3Z" fill="#01273b" stroke="#01273b"></path><path d="M185.6 566.6L189.9 656.9L209.9 632.6Z" fill="#012f45" stroke="#012f45"></path><path d="M718.4 359.7L635.9 315.1L688.9 399.7Z" fill="#01273b" stroke="#01273b"></path><path d="M718.4 359.7L699.9 300.4L635.9 315.1Z" fill="#00324b" stroke="#00324b"></path><path d="M754.1 408.7L718.4 359.7L688.9 399.7Z" fill="#00324b" stroke="#00324b"></path><path d="M84.3 528.6L146.6 556.3L188.9 503.3Z" fill="#003a56" stroke="#003a56"></path><path d="M114.3 427.7L111.6 439.7L151.6 410Z" fill="#003e5c" stroke="#003e5c"></path><path d="M330.4 723.1L412.7 669.9L345.4 642.9Z" fill="#003651" stroke="#003651"></path><path d="M473.3 692.1L572.6 695.1L485.3 668.9Z" fill="#011926" stroke="#011926"></path><path d="M608.9 594.6L681.1 595.9L629.6 568.6Z" fill="#012f45" stroke="#012f45"></path><path d="M209.9 632.6L238.1 662.1L215.1 629.9Z" fill="#003651" stroke="#003651"></path><path d="M620.9 678.9L608.9 594.6L546.6 638.9Z" fill="#00324b" stroke="#00324b"></path><path d="M672.9 547.3L745.4 512.3L700.1 488.3Z" fill="#021c2b" stroke="#021c2b"></path><path d="M460 716.4L572.6 695.1L473.3 692.1Z" fill="#012b40" stroke="#012b40"></path><path d="M238.1 662.1L330.4 723.1L345.4 642.9Z" fill="#012435" stroke="#012435"></path><path d="M137.6 211.1L145.6 232.9L249.1 237.1Z" fill="#00324b" stroke="#00324b"></path><path d="M180.9 262.4L104.6 284.4L201.1 350.4Z" fill="#021c2b" stroke="#021c2b"></path><path d="M114.3 427.7L36.3 428L111.6 439.7Z" fill="#011926" stroke="#011926"></path><path d="M137.6 211.1L249.1 237.1L256.1 175.9Z" fill="#003a56" stroke="#003a56"></path><path d="M146.6 556.3L189.9 656.9L185.6 566.6Z" fill="#003a56" stroke="#003a56"></path><path d="M209.9 632.6L189.9 656.9L238.1 662.1Z" fill="#003e5c" stroke="#003e5c"></path><path d="M321.4 759.4L345.7 762.1L330.4 723.1Z" fill="#003e5c" stroke="#003e5c"></path><path d="M572.6 695.1L620.9 678.9L546.6 638.9Z" fill="#021c2b" stroke="#021c2b"></path><path d="M753.1 275.4L724.4 276.4L767.4 303.1Z" fill="#01273b" stroke="#01273b"></path><path d="M699.9 300.4L700.1 204.1L606.6 259.1Z" fill="#012b40" stroke="#012b40"></path><path d="M782.4 453L754.1 408.7L700.1 488.3Z" fill="#021c2b" stroke="#021c2b"></path><path d="M700.1 488.3L754.1 408.7L688.9 399.7Z" fill="#003a56" stroke="#003a56"></path><path d="M767.4 303.1L724.4 276.4L699.9 300.4Z" fill="#003a56" stroke="#003a56"></path><path d="M366.7 59.3L340.4 83.6L378.7 112.6Z" fill="#012f45" stroke="#012f45"></path><path d="M378.7 112.6L340.4 83.6L344.4 173.9Z" fill="#003651" stroke="#003651"></path><path d="M504.3 74.3L391 112.6L483.3 135.6Z" fill="#022030" stroke="#022030"></path><path d="M145.6 232.9L104.6 284.4L180.9 262.4Z" fill="#011926" stroke="#011926"></path><path d="M340.4 83.6L229.1 127.6L256.1 175.9Z" fill="#003a56" stroke="#003a56"></path><path d="M145.6 232.9L114.3 194.9L104.6 284.4Z" fill="#012f45" stroke="#012f45"></path><path d="M731.1 611.6L672.9 547.3L681.1 595.9Z" fill="#01273b" stroke="#01273b"></path><path d="M754.4 599.6L745.4 512.3L672.9 547.3Z" fill="#00324b" stroke="#00324b"></path><path d="M229.1 127.6L210.9 136.9L256.1 175.9Z" fill="#003a56" stroke="#003a56"></path><path d="M210.9 136.9L137.6 211.1L256.1 175.9Z" fill="#021c2b" stroke="#021c2b"></path><path d="M519.6 59.3L504.3 74.3L531.3 135.9Z" fill="#012f45" stroke="#012f45"></path><path d="M531.3 135.9L504.3 74.3L483.3 135.6Z" fill="#00324b" stroke="#00324b"></path><path d="M602.9 112.6L531.3 135.9L613.6 184.9Z" fill="#012f45" stroke="#012f45"></path><path d="M724.4 276.4L700.1 204.1L699.9 300.4Z" fill="#003651" stroke="#003651"></path><path d="M659.9 133.9L602.9 112.6L613.6 184.9Z" fill="#012f45" stroke="#012f45"></path><path d="M36.3 428L84.3 528.6L111.6 439.7Z" fill="#022030" stroke="#022030"></path><path d="M111.6 439.7L84.3 528.6L188.9 503.3Z" fill="#00324b" stroke="#00324b"></path><path d="M146.6 556.3L100.3 679.1L189.9 656.9Z" fill="#022030" stroke="#022030"></path><path d="M572.6 695.1L588.6 723.4L620.9 678.9Z" fill="#022030" stroke="#022030"></path><path d="M620.9 678.9L731.1 611.6L681.1 595.9Z" fill="#01273b" stroke="#01273b"></path><path d="M460 716.4L588.6 723.4L572.6 695.1Z" fill="#00324b" stroke="#00324b"></path><path d="M587.9 764.1L588.6 723.4L460 716.4Z" fill="#003a56" stroke="#003a56"></path><path d="M446 25.3L366.7 59.3L391 112.6Z" fill="#022030" stroke="#022030"></path><path d="M340.4 83.6L309.4 30.3L229.1 127.6Z" fill="#01273b" stroke="#01273b"></path><path d="M321.4 759.4L330.4 723.1L274.1 743.4Z" fill="#022030" stroke="#022030"></path><path d="M330.4 723.1L345.7 762.1L412.7 669.9Z" fill="#003e5c" stroke="#003e5c"></path><path d="M274.1 743.4L330.4 723.1L238.1 662.1Z" fill="#012435" stroke="#012435"></path><path d="M167.9 737.1L274.1 743.4L238.1 662.1Z" fill="#012435" stroke="#012435"></path><path d="M767.4 303.1L699.9 300.4L718.4 359.7Z" fill="#022030" stroke="#022030"></path><path d="M724.4 276.4L753.1 275.4L700.1 204.1Z" fill="#012b40" stroke="#012b40"></path><path d="M84.3 528.6L80.3 552.3L146.6 556.3Z" fill="#003e5c" stroke="#003e5c"></path><path d="M189.9 656.9L167.9 737.1L238.1 662.1Z" fill="#012435" stroke="#012435"></path><path d="M0 541.3L80.3 552.3L84.3 528.6Z" fill="#012f45" stroke="#012f45"></path><path d="M754.1 408.7L767.4 303.1L718.4 359.7Z" fill="#012b40" stroke="#012b40"></path><path d="M856.7 403L767.4 303.1L754.1 408.7Z" fill="#022030" stroke="#022030"></path><path d="M602.9 112.6L519.6 59.3L531.3 135.9Z" fill="#012435" stroke="#012435"></path><path d="M504.3 74.3L446 25.3L391 112.6Z" fill="#003e5c" stroke="#003e5c"></path><path d="M745.4 512.3L782.4 453L700.1 488.3Z" fill="#00324b" stroke="#00324b"></path><path d="M700.1 204.1L659.9 133.9L613.6 184.9Z" fill="#003e5c" stroke="#003e5c"></path><path d="M604.9 0L514.3 0L519.6 59.3Z" fill="#01273b" stroke="#01273b"></path><path d="M652.1 98.6L736.4 99.6L678.9 65.3Z" fill="#003a56" stroke="#003a56"></path><path d="M356.4 804.7L364.7 777.4L345.7 762.1Z" fill="#021c2b" stroke="#021c2b"></path><path d="M345.7 762.1L364.7 777.4L412.7 669.9Z" fill="#003651" stroke="#003651"></path><path d="M356.4 804.7L345.7 762.1L321.4 759.4Z" fill="#003e5c" stroke="#003e5c"></path><path d="M692.1 748.1L731.1 611.6L620.9 678.9Z" fill="#012435" stroke="#012435"></path><path d="M745.4 512.3L855.7 530.3L782.4 453Z" fill="#01273b" stroke="#01273b"></path><path d="M137.6 211.1L114.3 194.9L145.6 232.9Z" fill="#012435" stroke="#012435"></path><path d="M210.9 136.9L114.3 194.9L137.6 211.1Z" fill="#012f45" stroke="#012f45"></path><path d="M0 327.4L36.3 428L104.6 284.4Z" fill="#011926" stroke="#011926"></path><path d="M104.6 284.4L36.3 428L114.3 427.7Z" fill="#021c2b" stroke="#021c2b"></path><path d="M114.3 194.9L61.3 273.4L104.6 284.4Z" fill="#012f45" stroke="#012f45"></path><path d="M825.4 662.9L754.4 599.6L731.1 611.6Z" fill="#011926" stroke="#011926"></path><path d="M731.1 611.6L754.4 599.6L672.9 547.3Z" fill="#012435" stroke="#012435"></path><path d="M479 0L446 25.3L504.3 74.3Z" fill="#012f45" stroke="#012f45"></path><path d="M486.3 812.7L587.9 764.1L460 716.4Z" fill="#003651" stroke="#003651"></path><path d="M588.6 723.4L652.9 745.4L620.9 678.9Z" fill="#003a56" stroke="#003a56"></path><path d="M747.4 164.9L659.9 133.9L700.1 204.1Z" fill="#012435" stroke="#012435"></path><path d="M659.9 133.9L652.1 98.6L602.9 112.6Z" fill="#003651" stroke="#003651"></path><path d="M479 0L403.7 0L446 25.3Z" fill="#021c2b" stroke="#021c2b"></path><path d="M229.1 127.6L189.9 82.6L210.9 136.9Z" fill="#012b40" stroke="#012b40"></path><path d="M210.9 136.9L94.6 102.6L114.3 194.9Z" fill="#003651" stroke="#003651"></path><path d="M366.7 59.3L309.4 30.3L340.4 83.6Z" fill="#00324b" stroke="#00324b"></path><path d="M403.7 0L309.4 30.3L366.7 59.3Z" fill="#012435" stroke="#012435"></path><path d="M349.7 835.7L356.4 804.7L272.1 845.7Z" fill="#00324b" stroke="#00324b"></path><path d="M364.7 777.4L486.3 812.7L460 716.4Z" fill="#01273b" stroke="#01273b"></path><path d="M855.7 530.3L815.7 431.7L782.4 453Z" fill="#00324b" stroke="#00324b"></path><path d="M782.4 453L815.7 431.7L754.1 408.7Z" fill="#00324b" stroke="#00324b"></path><path d="M219.9 47.3L189.9 82.6L229.1 127.6Z" fill="#012f45" stroke="#012f45"></path><path d="M0 205.9L13.3 285.1L61.3 273.4Z" fill="#00324b" stroke="#00324b"></path><path d="M767.4 303.1L797.7 285.1L753.1 275.4Z" fill="#012b40" stroke="#012b40"></path><path d="M759.1 175.9L747.4 164.9L700.1 204.1Z" fill="#022030" stroke="#022030"></path><path d="M867.7 333.4L797.7 285.1L767.4 303.1Z" fill="#003a56" stroke="#003a56"></path><path d="M482.3 828.4L486.3 812.7L364.7 777.4Z" fill="#021c2b" stroke="#021c2b"></path><path d="M692.1 748.1L652.9 745.4L658.1 798.4Z" fill="#021c2b" stroke="#021c2b"></path><path d="M587.9 764.1L652.9 745.4L588.6 723.4Z" fill="#011926" stroke="#011926"></path><path d="M100.3 679.1L167.9 737.1L189.9 656.9Z" fill="#021c2b" stroke="#021c2b"></path><path d="M272.1 845.7L356.4 804.7L321.4 759.4Z" fill="#022030" stroke="#022030"></path><path d="M479 0L504.3 74.3L519.6 59.3Z" fill="#003651" stroke="#003651"></path><path d="M446 25.3L403.7 0L366.7 59.3Z" fill="#012b40" stroke="#012b40"></path><path d="M759.1 175.9L700.1 204.1L753.1 275.4Z" fill="#012b40" stroke="#012b40"></path><path d="M55.3 623.9L146.6 556.3L80.3 552.3Z" fill="#012b40" stroke="#012b40"></path><path d="M55.3 623.9L100.3 679.1L146.6 556.3Z" fill="#012f45" stroke="#012f45"></path><path d="M271.4 0L219.9 47.3L309.4 30.3Z" fill="#003a56" stroke="#003a56"></path><path d="M309.4 30.3L219.9 47.3L229.1 127.6Z" fill="#012435" stroke="#012435"></path><path d="M797.7 285.1L759.1 175.9L753.1 275.4Z" fill="#003e5c" stroke="#003e5c"></path><path d="M514.3 0L479 0L519.6 59.3Z" fill="#012f45" stroke="#012f45"></path><path d="M0 327.4L0 440.7L36.3 428Z" fill="#003651" stroke="#003651"></path><path d="M36.3 428L0 507L84.3 528.6Z" fill="#012f45" stroke="#012f45"></path><path d="M0 584.6L55.3 623.9L80.3 552.3Z" fill="#012b40" stroke="#012b40"></path><path d="M421 871.7L482.3 828.4L364.7 777.4Z" fill="#012f45" stroke="#012f45"></path><path d="M486.3 812.7L632.6 873.7L587.9 764.1Z" fill="#00324b" stroke="#00324b"></path><path d="M604.9 0L519.6 59.3L602.9 112.6Z" fill="#012f45" stroke="#012f45"></path><path d="M604.9 0L602.9 112.6L613.6 0Z" fill="#01273b" stroke="#01273b"></path><path d="M0 205.9L61.3 273.4L114.3 194.9Z" fill="#00324b" stroke="#00324b"></path><path d="M61.3 273.4L0 327.4L104.6 284.4Z" fill="#012435" stroke="#012435"></path><path d="M94.6 102.6L210.9 136.9L189.9 82.6Z" fill="#012b40" stroke="#012b40"></path><path d="M142.9 779.7L168.6 755.1L167.9 737.1Z" fill="#003651" stroke="#003651"></path><path d="M167.9 737.1L168.6 755.1L274.1 743.4Z" fill="#012435" stroke="#012435"></path><path d="M13.3 285.1L0 327.4L61.3 273.4Z" fill="#003e5c" stroke="#003e5c"></path><path d="M55.3 623.9L94.6 691.9L100.3 679.1Z" fill="#01273b" stroke="#01273b"></path><path d="M100.3 679.1L94.6 691.9L167.9 737.1Z" fill="#00324b" stroke="#00324b"></path><path d="M0 440.7L0 507L36.3 428Z" fill="#011926" stroke="#011926"></path><path d="M272.1 845.7L321.4 759.4L274.1 743.4Z" fill="#00324b" stroke="#00324b"></path><path d="M356.4 804.7L421 871.7L364.7 777.4Z" fill="#01273b" stroke="#01273b"></path><path d="M737.1 105.3L659.9 133.9L747.4 164.9Z" fill="#003a56" stroke="#003a56"></path><path d="M737.1 105.3L652.1 98.6L659.9 133.9Z" fill="#021c2b" stroke="#021c2b"></path><path d="M658.1 798.4L652.9 745.4L587.9 764.1Z" fill="#012b40" stroke="#012b40"></path><path d="M652.9 745.4L692.1 748.1L620.9 678.9Z" fill="#003651" stroke="#003651"></path><path d="M403.7 0L279.1 0L309.4 30.3Z" fill="#012b40" stroke="#012b40"></path><path d="M225.9 0L211.1 29.3L219.9 47.3Z" fill="#003e5c" stroke="#003e5c"></path><path d="M219.9 47.3L211.1 29.3L189.9 82.6Z" fill="#003e5c" stroke="#003e5c"></path><path d="M0 507L0 541.3L84.3 528.6Z" fill="#003a56" stroke="#003a56"></path><path d="M0 691.1L74.6 718.4L94.6 691.9Z" fill="#003a56" stroke="#003a56"></path><path d="M279.1 0L271.4 0L309.4 30.3Z" fill="#012b40" stroke="#012b40"></path><path d="M900 442L856.7 403L815.7 431.7Z" fill="#00324b" stroke="#00324b"></path><path d="M815.7 431.7L856.7 403L754.1 408.7Z" fill="#00324b" stroke="#00324b"></path><path d="M797.7 285.1L872.7 179.9L759.1 175.9Z" fill="#003a56" stroke="#003a56"></path><path d="M855.7 530.3L745.4 512.3L754.4 599.6Z" fill="#011926" stroke="#011926"></path><path d="M736.4 99.6L737.1 105.3L776.7 94.6Z" fill="#012435" stroke="#012435"></path><path d="M776.7 94.6L737.1 105.3L747.4 164.9Z" fill="#003e5c" stroke="#003e5c"></path><path d="M776.7 94.6L747.4 164.9L759.1 175.9Z" fill="#003e5c" stroke="#003e5c"></path><path d="M737.1 105.3L736.4 99.6L652.1 98.6Z" fill="#021c2b" stroke="#021c2b"></path><path d="M95.6 74.3L94.6 102.6L189.9 82.6Z" fill="#00324b" stroke="#00324b"></path><path d="M142.9 779.7L202.9 804.4L168.6 755.1Z" fill="#012f45" stroke="#012f45"></path><path d="M168.6 755.1L202.9 804.4L274.1 743.4Z" fill="#012435" stroke="#012435"></path><path d="M0 541.3L0 584.6L80.3 552.3Z" fill="#003a56" stroke="#003a56"></path><path d="M613.6 0L602.9 112.6L652.1 98.6Z" fill="#012435" stroke="#012435"></path><path d="M613.6 0L652.1 98.6L678.9 65.3Z" fill="#003651" stroke="#003651"></path><path d="M271.4 0L225.9 0L219.9 47.3Z" fill="#01273b" stroke="#01273b"></path><path d="M179.6 0L95.6 74.3L189.9 82.6Z" fill="#003651" stroke="#003651"></path><path d="M844.7 593.6L855.7 530.3L754.4 599.6Z" fill="#011926" stroke="#011926"></path><path d="M632.6 873.7L658.1 798.4L587.9 764.1Z" fill="#01273b" stroke="#01273b"></path><path d="M825.4 662.9L844.7 593.6L754.4 599.6Z" fill="#01273b" stroke="#01273b"></path><path d="M725.4 0L613.6 0L678.9 65.3Z" fill="#00324b" stroke="#00324b"></path><path d="M900 370.7L867.7 333.4L856.7 403Z" fill="#01273b" stroke="#01273b"></path><path d="M856.7 403L867.7 333.4L767.4 303.1Z" fill="#003a56" stroke="#003a56"></path><path d="M202.9 804.4L272.1 845.7L274.1 743.4Z" fill="#003651" stroke="#003651"></path><path d="M349.7 835.7L421 871.7L356.4 804.7Z" fill="#022030" stroke="#022030"></path><path d="M74.6 718.4L142.9 779.7L167.9 737.1Z" fill="#012f45" stroke="#012f45"></path><path d="M202.9 804.4L205.1 900L272.1 845.7Z" fill="#021c2b" stroke="#021c2b"></path><path d="M74.6 718.4L167.9 737.1L94.6 691.9Z" fill="#022030" stroke="#022030"></path><path d="M0 691.1L94.6 691.9L55.3 623.9Z" fill="#01273b" stroke="#01273b"></path><path d="M397 900L421 871.7L394.7 900Z" fill="#01273b" stroke="#01273b"></path><path d="M482.3 828.4L632.6 873.7L486.3 812.7Z" fill="#01273b" stroke="#01273b"></path><path d="M747.4 748.1L731.1 611.6L692.1 748.1Z" fill="#021c2b" stroke="#021c2b"></path><path d="M0 203.1L0 205.9L114.3 194.9Z" fill="#011926" stroke="#011926"></path><path d="M13.3 285.1L0 205.9L0 327.4Z" fill="#012f45" stroke="#012f45"></path><path d="M179.6 0L189.9 82.6L211.1 29.3Z" fill="#01273b" stroke="#01273b"></path><path d="M0 171.6L0 203.1L114.3 194.9Z" fill="#00324b" stroke="#00324b"></path><path d="M0 171.6L114.3 194.9L39.3 113.6Z" fill="#011926" stroke="#011926"></path><path d="M692.9 799.7L747.4 748.1L692.1 748.1Z" fill="#022030" stroke="#022030"></path><path d="M225.9 0L179.6 0L211.1 29.3Z" fill="#012b40" stroke="#012b40"></path><path d="M672.1 857.7L692.9 799.7L658.1 798.4Z" fill="#00324b" stroke="#00324b"></path><path d="M658.1 798.4L692.9 799.7L692.1 748.1Z" fill="#021c2b" stroke="#021c2b"></path><path d="M747.4 748.1L825.4 662.9L731.1 611.6Z" fill="#003e5c" stroke="#003e5c"></path><path d="M786.7 81.3L776.7 94.6L872.7 179.9Z" fill="#012f45" stroke="#012f45"></path><path d="M736.4 99.6L725.4 0L678.9 65.3Z" fill="#003e5c" stroke="#003e5c"></path><path d="M39.3 113.6L114.3 194.9L94.6 102.6Z" fill="#00324b" stroke="#00324b"></path><path d="M0 95.3L39.3 113.6L36.3 7.3Z" fill="#021c2b" stroke="#021c2b"></path><path d="M95.6 74.3L39.3 113.6L94.6 102.6Z" fill="#022030" stroke="#022030"></path><path d="M900 526.3L855.7 530.3L900 560.6Z" fill="#01273b" stroke="#01273b"></path><path d="M900 526.3L900 442L855.7 530.3Z" fill="#012435" stroke="#012435"></path><path d="M855.7 530.3L900 442L815.7 431.7Z" fill="#021c2b" stroke="#021c2b"></path><path d="M900 442L900 370.7L856.7 403Z" fill="#012435" stroke="#012435"></path><path d="M867.7 333.4L900 288.1L797.7 285.1Z" fill="#022030" stroke="#022030"></path><path d="M825.7 744.1L833.7 666.9L825.4 662.9Z" fill="#021c2b" stroke="#021c2b"></path><path d="M825.4 662.9L833.7 666.9L844.7 593.6Z" fill="#01273b" stroke="#01273b"></path><path d="M781.4 752.4L825.4 662.9L747.4 748.1Z" fill="#012f45" stroke="#012f45"></path><path d="M394.7 900L421 871.7L349.7 835.7Z" fill="#00324b" stroke="#00324b"></path><path d="M421 871.7L461.3 900L482.3 828.4Z" fill="#011926" stroke="#011926"></path><path d="M331.4 900L394.7 900L349.7 835.7Z" fill="#021c2b" stroke="#021c2b"></path><path d="M168.6 900L205.1 900L202.9 804.4Z" fill="#003e5c" stroke="#003e5c"></path><path d="M272.1 845.7L331.4 900L349.7 835.7Z" fill="#003651" stroke="#003651"></path><path d="M74.6 718.4L106.6 789.7L142.9 779.7Z" fill="#003a56" stroke="#003a56"></path><path d="M17.3 734.4L106.6 789.7L74.6 718.4Z" fill="#021c2b" stroke="#021c2b"></path><path d="M397 900L461.3 900L421 871.7Z" fill="#021c2b" stroke="#021c2b"></path><path d="M900 370.7L900 302.4L867.7 333.4Z" fill="#012435" stroke="#012435"></path><path d="M205.1 900L331.4 900L272.1 845.7Z" fill="#003a56" stroke="#003a56"></path><path d="M872.7 179.9L776.7 94.6L759.1 175.9Z" fill="#003e5c" stroke="#003e5c"></path><path d="M776.7 94.6L786.7 81.3L736.4 99.6Z" fill="#003651" stroke="#003651"></path><path d="M900 560.6L855.7 530.3L844.7 593.6Z" fill="#012435" stroke="#012435"></path><path d="M900 302.4L900 288.1L867.7 333.4Z" fill="#022030" stroke="#022030"></path><path d="M790.7 765.4L781.4 752.4L747.4 748.1Z" fill="#011926" stroke="#011926"></path><path d="M0 584.6L0 691.1L55.3 623.9Z" fill="#011926" stroke="#011926"></path><path d="M0 691.1L0 691.9L74.6 718.4Z" fill="#003a56" stroke="#003a56"></path><path d="M900 609.9L844.7 593.6L833.7 666.9Z" fill="#003a56" stroke="#003a56"></path><path d="M900 609.9L900 560.6L844.7 593.6Z" fill="#022030" stroke="#022030"></path><path d="M461.3 900L632.6 873.7L482.3 828.4Z" fill="#012435" stroke="#012435"></path><path d="M692.9 799.7L790.7 765.4L747.4 748.1Z" fill="#012435" stroke="#012435"></path><path d="M900 288.1L872.7 179.9L797.7 285.1Z" fill="#01273b" stroke="#01273b"></path><path d="M632.6 873.7L672.1 857.7L658.1 798.4Z" fill="#01273b" stroke="#01273b"></path><path d="M0 691.9L17.3 734.4L74.6 718.4Z" fill="#012435" stroke="#012435"></path><path d="M779.4 860.7L790.7 765.4L692.9 799.7Z" fill="#011926" stroke="#011926"></path><path d="M781.4 752.4L825.7 744.1L825.4 662.9Z" fill="#012f45" stroke="#012f45"></path><path d="M740.1 0L736.4 99.6L786.7 81.3Z" fill="#003651" stroke="#003651"></path><path d="M740.1 0L725.4 0L736.4 99.6Z" fill="#003e5c" stroke="#003e5c"></path><path d="M900 662.1L900 609.9L833.7 666.9Z" fill="#003651" stroke="#003651"></path><path d="M779.7 0L740.1 0L786.7 81.3Z" fill="#012435" stroke="#012435"></path><path d="M36.3 7.3L39.3 113.6L95.6 74.3Z" fill="#012b40" stroke="#012b40"></path><path d="M39.3 113.6L0 95.3L0 171.6Z" fill="#003651" stroke="#003651"></path><path d="M861.7 799.7L825.7 744.1L790.7 765.4Z" fill="#011926" stroke="#011926"></path><path d="M790.7 765.4L825.7 744.1L781.4 752.4Z" fill="#012f45" stroke="#012f45"></path><path d="M202.9 804.4L142.9 779.7L152.9 900Z" fill="#003a56" stroke="#003a56"></path><path d="M168.6 900L202.9 804.4L152.9 900Z" fill="#012435" stroke="#012435"></path><path d="M461.3 900L634.9 900L632.6 873.7Z" fill="#01273b" stroke="#01273b"></path><path d="M632.6 873.7L635.6 900L672.1 857.7Z" fill="#01273b" stroke="#01273b"></path><path d="M672.1 857.7L779.4 860.7L692.9 799.7Z" fill="#00324b" stroke="#00324b"></path><path d="M634.9 900L635.6 900L632.6 873.7Z" fill="#021c2b" stroke="#021c2b"></path><path d="M900 288.1L900 174.9L872.7 179.9Z" fill="#012f45" stroke="#012f45"></path><path d="M872.7 179.9L900 107.3L786.7 81.3Z" fill="#003a56" stroke="#003a56"></path><path d="M825.7 744.1L900 662.1L833.7 666.9Z" fill="#003e5c" stroke="#003e5c"></path><path d="M0 691.9L0 766.4L17.3 734.4Z" fill="#003651" stroke="#003651"></path><path d="M17.3 734.4L0 766.4L106.6 789.7Z" fill="#00324b" stroke="#00324b"></path><path d="M152.9 900L142.9 779.7L106.6 789.7Z" fill="#003e5c" stroke="#003e5c"></path><path d="M821.4 21.3L779.7 0L786.7 81.3Z" fill="#003651" stroke="#003651"></path><path d="M77.3 862.7L152.9 900L106.6 789.7Z" fill="#021c2b" stroke="#021c2b"></path><path d="M179.6 0L44.3 0L95.6 74.3Z" fill="#003e5c" stroke="#003e5c"></path><path d="M44.3 0L36.3 7.3L95.6 74.3Z" fill="#003651" stroke="#003651"></path><path d="M900 80.6L821.4 21.3L786.7 81.3Z" fill="#003651" stroke="#003651"></path><path d="M0 766.4L77.3 862.7L106.6 789.7Z" fill="#012f45" stroke="#012f45"></path><path d="M900 174.9L900 107.3L872.7 179.9Z" fill="#022030" stroke="#022030"></path><path d="M635.6 900L721.1 900L672.1 857.7Z" fill="#012435" stroke="#012435"></path><path d="M825.7 744.1L900 791.4L900 662.1Z" fill="#012b40" stroke="#012b40"></path><path d="M721.1 900L779.4 860.7L672.1 857.7Z" fill="#003e5c" stroke="#003e5c"></path><path d="M900 107.3L900 80.6L786.7 81.3Z" fill="#003651" stroke="#003651"></path><path d="M44.3 0L0 0L36.3 7.3Z" fill="#003e5c" stroke="#003e5c"></path><path d="M36.3 7.3L0 0L0 95.3Z" fill="#022030" stroke="#022030"></path><path d="M779.4 860.7L861.7 799.7L790.7 765.4Z" fill="#012435" stroke="#012435"></path><path d="M721.1 900L772.4 900L779.4 860.7Z" fill="#012b40" stroke="#012b40"></path><path d="M779.4 860.7L820.7 900L861.7 799.7Z" fill="#00324b" stroke="#00324b"></path><path d="M0 766.4L0 850.7L77.3 862.7Z" fill="#012435" stroke="#012435"></path><path d="M77.3 862.7L43.3 900L152.9 900Z" fill="#003a56" stroke="#003a56"></path><path d="M900 847.7L900 791.4L861.7 799.7Z" fill="#012435" stroke="#012435"></path><path d="M861.7 799.7L900 791.4L825.7 744.1Z" fill="#003a56" stroke="#003a56"></path><path d="M0 850.7L43.3 900L77.3 862.7Z" fill="#003651" stroke="#003651"></path><path d="M772.4 900L820.7 900L779.4 860.7Z" fill="#003a56" stroke="#003a56"></path><path d="M900 80.6L900 0L821.4 21.3Z" fill="#021c2b" stroke="#021c2b"></path><path d="M821.4 21.3L900 0L779.7 0Z" fill="#021c2b" stroke="#021c2b"></path><path d="M0 850.7L0 900L43.3 900Z" fill="#012f45" stroke="#012f45"></path><path d="M820.7 900L900 847.7L861.7 799.7Z" fill="#003651" stroke="#003651"></path><path d="M820.7 900L900 900L900 847.7Z" fill="#012435" stroke="#012435"></path></g></svg>