<svg id="visual" viewBox="0 0 1920 1080" width="1920" height="1080" xmlns="http://www.w3.org/2000/svg" xmlns:xlink="http://www.w3.org/1999/xlink" version="1.1"><g stroke-width="1" stroke-linejoin="bevel"><path d="M976 597L878.9 629L1007 658Z" fill="#003a56" stroke="#003a56"></path><path d="M878.9 629L930 757L1007 658Z" fill="#01273b" stroke="#01273b"></path><path d="M976 597L870.9 529L878.9 629Z" fill="#012b40" stroke="#012b40"></path><path d="M930 757L1063.1 770L1007 658Z" fill="#003a56" stroke="#003a56"></path><path d="M720.7 707L793.9 785L878.9 629Z" fill="#003651" stroke="#003651"></path><path d="M878.9 629L793.9 785L930 757Z" fill="#011926" stroke="#011926"></path><path d="M930 757L1060.1 908L1063.1 770Z" fill="#021c2b" stroke="#021c2b"></path><path d="M1063.1 770L1136.1 621L1007 658Z" fill="#01273b" stroke="#01273b"></path><path d="M1007 658L1136.1 621L976 597Z" fill="#022030" stroke="#022030"></path><path d="M976 597L933 451L870.9 529Z" fill="#00324b" stroke="#00324b"></path><path d="M1090.1 499L933 451L976 597Z" fill="#021c2b" stroke="#021c2b"></path><path d="M1136.1 621L1090.1 499L976 597Z" fill="#012435" stroke="#012435"></path><path d="M717.7 575L878.9 629L870.9 529Z" fill="#022030" stroke="#022030"></path><path d="M717.7 575L720.7 707L878.9 629Z" fill="#022030" stroke="#022030"></path><path d="M832.9 386L717.7 575L870.9 529Z" fill="#021c2b" stroke="#021c2b"></path><path d="M1136.1 621L1180.3 530L1090.1 499Z" fill="#01273b" stroke="#01273b"></path><path d="M994 966L1060.1 908L930 757Z" fill="#01273b" stroke="#01273b"></path><path d="M1063.1 770L1235.3 671L1136.1 621Z" fill="#022030" stroke="#022030"></path><path d="M1136.1 621L1235.3 671L1180.3 530Z" fill="#022030" stroke="#022030"></path><path d="M861.9 310L832.9 386L933 451Z" fill="#022030" stroke="#022030"></path><path d="M933 451L832.9 386L870.9 529Z" fill="#01273b" stroke="#01273b"></path><path d="M1135.1 422L933 451L1090.1 499Z" fill="#00324b" stroke="#00324b"></path><path d="M1207.3 847L1235.3 671L1063.1 770Z" fill="#022030" stroke="#022030"></path><path d="M1180.3 530L1135.1 422L1090.1 499Z" fill="#012435" stroke="#012435"></path><path d="M720.7 707L664.7 807L793.9 785Z" fill="#011926" stroke="#011926"></path><path d="M795.9 937L994 966L930 757Z" fill="#01273b" stroke="#01273b"></path><path d="M544.6 793L664.7 807L720.7 707Z" fill="#011926" stroke="#011926"></path><path d="M795.9 937L930 757L793.9 785Z" fill="#021c2b" stroke="#021c2b"></path><path d="M664.7 807L795.9 937L793.9 785Z" fill="#01273b" stroke="#01273b"></path><path d="M1187.3 977L1207.3 847L1060.1 908Z" fill="#022030" stroke="#022030"></path><path d="M1060.1 908L1207.3 847L1063.1 770Z" fill="#01273b" stroke="#01273b"></path><path d="M912 234L861.9 310L1044.1 240Z" fill="#003a56" stroke="#003a56"></path><path d="M832.9 386L728.7 347L717.7 575Z" fill="#012f45" stroke="#012f45"></path><path d="M861.9 310L728.7 347L832.9 386Z" fill="#011926" stroke="#011926"></path><path d="M717.7 575L531.6 630L720.7 707Z" fill="#012f45" stroke="#012f45"></path><path d="M544.6 793L641.7 898L664.7 807Z" fill="#003a56" stroke="#003a56"></path><path d="M664.7 807L641.7 898L795.9 937Z" fill="#003651" stroke="#003651"></path><path d="M1131.1 1080L1187.3 977L1060.1 908Z" fill="#021c2b" stroke="#021c2b"></path><path d="M1402.4 838L1394.4 640L1235.3 671Z" fill="#00324b" stroke="#00324b"></path><path d="M542.6 498L531.6 630L717.7 575Z" fill="#003651" stroke="#003651"></path><path d="M728.7 347L596.6 413L717.7 575Z" fill="#011926" stroke="#011926"></path><path d="M531.6 630L544.6 793L720.7 707Z" fill="#01273b" stroke="#01273b"></path><path d="M1044.1 240L861.9 310L933 451Z" fill="#021c2b" stroke="#021c2b"></path><path d="M861.9 310L725.7 271L728.7 347Z" fill="#003e5c" stroke="#003e5c"></path><path d="M728.7 347L562.6 254L596.6 413Z" fill="#003e5c" stroke="#003e5c"></path><path d="M1135.1 422L1044.1 240L933 451Z" fill="#012435" stroke="#012435"></path><path d="M596.6 413L542.6 498L717.7 575Z" fill="#003a56" stroke="#003a56"></path><path d="M877.9 1080L994 966L795.9 937Z" fill="#011926" stroke="#011926"></path><path d="M877.9 1080L911 1080L994 966Z" fill="#003a56" stroke="#003a56"></path><path d="M994 966L1131.1 1080L1060.1 908Z" fill="#003e5c" stroke="#003e5c"></path><path d="M1180.3 530L1275.3 385L1135.1 422Z" fill="#022030" stroke="#022030"></path><path d="M1135.1 422L1288.3 222L1044.1 240Z" fill="#021c2b" stroke="#021c2b"></path><path d="M1365.4 438L1275.3 385L1180.3 530Z" fill="#012f45" stroke="#012f45"></path><path d="M642.7 1080L877.9 1080L795.9 937Z" fill="#003e5c" stroke="#003e5c"></path><path d="M838.9 185L725.7 271L861.9 310Z" fill="#011926" stroke="#011926"></path><path d="M1402.4 838L1235.3 671L1207.3 847Z" fill="#00324b" stroke="#00324b"></path><path d="M1235.3 671L1402.4 593L1180.3 530Z" fill="#003e5c" stroke="#003e5c"></path><path d="M1394.4 640L1402.4 593L1235.3 671Z" fill="#012435" stroke="#012435"></path><path d="M911 1080L1131.1 1080L994 966Z" fill="#022030" stroke="#022030"></path><path d="M1421.4 917L1402.4 838L1207.3 847Z" fill="#012b40" stroke="#012b40"></path><path d="M1402.4 593L1365.4 438L1180.3 530Z" fill="#012b40" stroke="#012b40"></path><path d="M1155.1 90L989 127L1044.1 240Z" fill="#00324b" stroke="#00324b"></path><path d="M989 127L838.9 185L912 234Z" fill="#003a56" stroke="#003a56"></path><path d="M912 234L838.9 185L861.9 310Z" fill="#00324b" stroke="#00324b"></path><path d="M544.6 793L591.6 992L641.7 898Z" fill="#003651" stroke="#003651"></path><path d="M641.7 898L642.7 1080L795.9 937Z" fill="#012435" stroke="#012435"></path><path d="M1131.1 1080L1178.3 1080L1187.3 977Z" fill="#003651" stroke="#003651"></path><path d="M1421.4 917L1207.3 847L1187.3 977Z" fill="#011926" stroke="#011926"></path><path d="M1485.6 654L1455.6 551L1402.4 593Z" fill="#00324b" stroke="#00324b"></path><path d="M360.4 549L531.6 630L542.6 498Z" fill="#01273b" stroke="#01273b"></path><path d="M360.4 549L421.4 651L531.6 630Z" fill="#003e5c" stroke="#003e5c"></path><path d="M531.6 630L421.4 651L544.6 793Z" fill="#012435" stroke="#012435"></path><path d="M432.4 1080L548.6 1080L591.6 992Z" fill="#003e5c" stroke="#003e5c"></path><path d="M591.6 992L642.7 1080L641.7 898Z" fill="#003651" stroke="#003651"></path><path d="M1485.6 654L1402.4 593L1394.4 640Z" fill="#003651" stroke="#003651"></path><path d="M1402.4 593L1455.6 551L1365.4 438Z" fill="#012435" stroke="#012435"></path><path d="M1288.3 222L1135.1 422L1275.3 385Z" fill="#01273b" stroke="#01273b"></path><path d="M1044.1 240L989 127L912 234Z" fill="#012435" stroke="#012435"></path><path d="M1402.4 838L1485.6 654L1394.4 640Z" fill="#003e5c" stroke="#003e5c"></path><path d="M1426.4 1080L1421.4 917L1187.3 977Z" fill="#012f45" stroke="#012f45"></path><path d="M1402.4 838L1517.6 846L1485.6 654Z" fill="#003651" stroke="#003651"></path><path d="M725.7 271L562.6 254L728.7 347Z" fill="#00324b" stroke="#00324b"></path><path d="M596.6 413L420.4 368L542.6 498Z" fill="#022030" stroke="#022030"></path><path d="M646.7 103L562.6 254L725.7 271Z" fill="#003651" stroke="#003651"></path><path d="M646.7 103L725.7 271L838.9 185Z" fill="#012b40" stroke="#012b40"></path><path d="M1452.6 305L1340.4 274L1365.4 438Z" fill="#012f45" stroke="#012f45"></path><path d="M1365.4 438L1340.4 274L1275.3 385Z" fill="#003651" stroke="#003651"></path><path d="M1340.4 274L1288.3 222L1275.3 385Z" fill="#01273b" stroke="#01273b"></path><path d="M383.4 986L591.6 992L544.6 793Z" fill="#003a56" stroke="#003a56"></path><path d="M591.6 992L548.6 1080L642.7 1080Z" fill="#011926" stroke="#011926"></path><path d="M421.4 651L382.4 826L544.6 793Z" fill="#012f45" stroke="#012f45"></path><path d="M1590.7 532L1482.6 434L1455.6 551Z" fill="#022030" stroke="#022030"></path><path d="M1455.6 551L1482.6 434L1365.4 438Z" fill="#003a56" stroke="#003a56"></path><path d="M420.4 368L360.4 549L542.6 498Z" fill="#012f45" stroke="#012f45"></path><path d="M421.4 651L264.3 707L382.4 826Z" fill="#01273b" stroke="#01273b"></path><path d="M562.6 254L420.4 368L596.6 413Z" fill="#003651" stroke="#003651"></path><path d="M1288.3 222L1155.1 90L1044.1 240Z" fill="#00324b" stroke="#00324b"></path><path d="M1421.4 917L1517.6 846L1402.4 838Z" fill="#003e5c" stroke="#003e5c"></path><path d="M1485.6 654L1590.7 532L1455.6 551Z" fill="#01273b" stroke="#01273b"></path><path d="M1352.4 88L1272.3 84L1288.3 222Z" fill="#011926" stroke="#011926"></path><path d="M1288.3 222L1272.3 84L1155.1 90Z" fill="#012f45" stroke="#012f45"></path><path d="M1482.6 434L1452.6 305L1365.4 438Z" fill="#003651" stroke="#003651"></path><path d="M834.9 0L646.7 103L838.9 185Z" fill="#012b40" stroke="#012b40"></path><path d="M562.6 254L373.4 212L420.4 368Z" fill="#012b40" stroke="#012b40"></path><path d="M905 0L838.9 185L989 127Z" fill="#003a56" stroke="#003a56"></path><path d="M217.3 428L316.3 588L360.4 549Z" fill="#01273b" stroke="#01273b"></path><path d="M360.4 549L316.3 588L421.4 651Z" fill="#012435" stroke="#012435"></path><path d="M1178.3 1080L1426.4 1080L1187.3 977Z" fill="#021c2b" stroke="#021c2b"></path><path d="M1421.4 917L1531.6 989L1517.6 846Z" fill="#01273b" stroke="#01273b"></path><path d="M382.4 826L383.4 986L544.6 793Z" fill="#022030" stroke="#022030"></path><path d="M328.3 926L383.4 986L382.4 826Z" fill="#003e5c" stroke="#003e5c"></path><path d="M1137.1 0L905 0L989 127Z" fill="#021c2b" stroke="#021c2b"></path><path d="M1453.6 186L1288.3 222L1340.4 274Z" fill="#022030" stroke="#022030"></path><path d="M1155.1 90L1137.1 0L989 127Z" fill="#021c2b" stroke="#021c2b"></path><path d="M1615.7 706L1590.7 532L1485.6 654Z" fill="#012f45" stroke="#012f45"></path><path d="M1482.6 434L1627.7 418L1452.6 305Z" fill="#01273b" stroke="#01273b"></path><path d="M905 0L834.9 0L838.9 185Z" fill="#003e5c" stroke="#003e5c"></path><path d="M383.4 986L432.4 1080L591.6 992Z" fill="#00324b" stroke="#00324b"></path><path d="M246.3 796L328.3 926L382.4 826Z" fill="#012f45" stroke="#012f45"></path><path d="M383.4 986L287.3 1080L432.4 1080Z" fill="#012435" stroke="#012435"></path><path d="M1669.7 820L1615.7 706L1517.6 846Z" fill="#021c2b" stroke="#021c2b"></path><path d="M1517.6 846L1615.7 706L1485.6 654Z" fill="#012b40" stroke="#012b40"></path><path d="M316.3 588L264.3 707L421.4 651Z" fill="#003a56" stroke="#003a56"></path><path d="M1426.4 1080L1531.6 989L1421.4 917Z" fill="#003651" stroke="#003651"></path><path d="M1266.3 0L1137.1 0L1155.1 90Z" fill="#022030" stroke="#022030"></path><path d="M646.7 103L509.6 115L562.6 254Z" fill="#01273b" stroke="#01273b"></path><path d="M420.4 368L217.3 428L360.4 549Z" fill="#022030" stroke="#022030"></path><path d="M316.3 588L184.1 708L264.3 707Z" fill="#003e5c" stroke="#003e5c"></path><path d="M504.6 0L509.6 115L646.7 103Z" fill="#012435" stroke="#012435"></path><path d="M1426.4 1080L1482.6 1080L1531.6 989Z" fill="#00324b" stroke="#00324b"></path><path d="M1452.6 305L1453.6 186L1340.4 274Z" fill="#01273b" stroke="#01273b"></path><path d="M1272.3 84L1266.3 0L1155.1 90Z" fill="#012435" stroke="#012435"></path><path d="M1690.7 284L1453.6 186L1452.6 305Z" fill="#01273b" stroke="#01273b"></path><path d="M1453.6 186L1352.4 88L1288.3 222Z" fill="#022030" stroke="#022030"></path><path d="M834.9 0L671.7 0L646.7 103Z" fill="#011926" stroke="#011926"></path><path d="M264.3 707L246.3 796L382.4 826Z" fill="#012f45" stroke="#012f45"></path><path d="M504.6 0L438.4 153L509.6 115Z" fill="#003651" stroke="#003651"></path><path d="M509.6 115L438.4 153L562.6 254Z" fill="#022030" stroke="#022030"></path><path d="M438.4 153L373.4 212L562.6 254Z" fill="#022030" stroke="#022030"></path><path d="M1798.9 590L1627.7 418L1590.7 532Z" fill="#003e5c" stroke="#003e5c"></path><path d="M1590.7 532L1627.7 418L1482.6 434Z" fill="#011926" stroke="#011926"></path><path d="M1352.4 88L1266.3 0L1272.3 84Z" fill="#011926" stroke="#011926"></path><path d="M1369.4 0L1266.3 0L1352.4 88Z" fill="#012435" stroke="#012435"></path><path d="M1661.7 926L1669.7 820L1517.6 846Z" fill="#00324b" stroke="#00324b"></path><path d="M1615.7 706L1798.9 590L1590.7 532Z" fill="#003e5c" stroke="#003e5c"></path><path d="M1661.7 926L1517.6 846L1531.6 989Z" fill="#003a56" stroke="#003a56"></path><path d="M315.3 217L217.3 428L420.4 368Z" fill="#01273b" stroke="#01273b"></path><path d="M264.3 707L184.1 708L246.3 796Z" fill="#01273b" stroke="#01273b"></path><path d="M92.1 535L184.1 708L316.3 588Z" fill="#003a56" stroke="#003a56"></path><path d="M120.1 944L287.3 1080L328.3 926Z" fill="#012435" stroke="#012435"></path><path d="M232.3 130L315.3 217L373.4 212Z" fill="#012435" stroke="#012435"></path><path d="M373.4 212L315.3 217L420.4 368Z" fill="#003a56" stroke="#003a56"></path><path d="M232.3 130L373.4 212L438.4 153Z" fill="#022030" stroke="#022030"></path><path d="M1633.7 1080L1661.7 926L1531.6 989Z" fill="#012f45" stroke="#012f45"></path><path d="M120.1 944L328.3 926L246.3 796Z" fill="#003651" stroke="#003651"></path><path d="M328.3 926L287.3 1080L383.4 986Z" fill="#011926" stroke="#011926"></path><path d="M1552.6 0L1352.4 88L1453.6 186Z" fill="#003e5c" stroke="#003e5c"></path><path d="M1552.6 0L1369.4 0L1352.4 88Z" fill="#003651" stroke="#003651"></path><path d="M671.7 0L504.6 0L646.7 103Z" fill="#003e5c" stroke="#003e5c"></path><path d="M0 646L140.1 784L184.1 708Z" fill="#003e5c" stroke="#003e5c"></path><path d="M184.1 708L140.1 784L246.3 796Z" fill="#012435" stroke="#012435"></path><path d="M1482.6 1080L1633.7 1080L1531.6 989Z" fill="#00324b" stroke="#00324b"></path><path d="M1791.9 348L1690.7 284L1627.7 418Z" fill="#003e5c" stroke="#003e5c"></path><path d="M1627.7 418L1690.7 284L1452.6 305Z" fill="#00324b" stroke="#00324b"></path><path d="M1661.7 926L1730.9 964L1669.7 820Z" fill="#011926" stroke="#011926"></path><path d="M1669.7 820L1792.9 669L1615.7 706Z" fill="#012b40" stroke="#012b40"></path><path d="M1633.7 1080L1730.9 964L1661.7 926Z" fill="#021c2b" stroke="#021c2b"></path><path d="M1812.9 797L1792.9 669L1669.7 820Z" fill="#012b40" stroke="#012b40"></path><path d="M89.1 439L92.1 535L217.3 428Z" fill="#003a56" stroke="#003a56"></path><path d="M217.3 428L92.1 535L316.3 588Z" fill="#011926" stroke="#011926"></path><path d="M1792.9 669L1798.9 590L1615.7 706Z" fill="#012435" stroke="#012435"></path><path d="M0 839L120.1 944L140.1 784Z" fill="#021c2b" stroke="#021c2b"></path><path d="M140.1 784L120.1 944L246.3 796Z" fill="#021c2b" stroke="#021c2b"></path><path d="M504.6 0L363.4 0L438.4 153Z" fill="#011926" stroke="#011926"></path><path d="M147.1 251L89.1 439L217.3 428Z" fill="#011926" stroke="#011926"></path><path d="M147.1 251L217.3 428L315.3 217Z" fill="#003651" stroke="#003651"></path><path d="M363.4 0L232.3 130L438.4 153Z" fill="#003651" stroke="#003651"></path><path d="M1730.9 964L1812.9 797L1669.7 820Z" fill="#021c2b" stroke="#021c2b"></path><path d="M1792.9 669L1920 728L1798.9 590Z" fill="#003651" stroke="#003651"></path><path d="M232.3 130L147.1 251L315.3 217Z" fill="#022030" stroke="#022030"></path><path d="M1690.7 284L1680.7 158L1453.6 186Z" fill="#012435" stroke="#012435"></path><path d="M1790.9 245L1680.7 158L1690.7 284Z" fill="#00324b" stroke="#00324b"></path><path d="M1680.7 158L1552.6 0L1453.6 186Z" fill="#012b40" stroke="#012b40"></path><path d="M1920 524L1791.9 348L1798.9 590Z" fill="#022030" stroke="#022030"></path><path d="M1798.9 590L1791.9 348L1627.7 418Z" fill="#022030" stroke="#022030"></path><path d="M120.1 944L139.1 1080L287.3 1080Z" fill="#003a56" stroke="#003a56"></path><path d="M1728.9 83L1588.7 0L1680.7 158Z" fill="#003e5c" stroke="#003e5c"></path><path d="M1680.7 158L1588.7 0L1552.6 0Z" fill="#021c2b" stroke="#021c2b"></path><path d="M363.4 0L287.3 0L232.3 130Z" fill="#003a56" stroke="#003a56"></path><path d="M232.3 130L159.1 158L147.1 251Z" fill="#022030" stroke="#022030"></path><path d="M167.1 0L159.1 158L232.3 130Z" fill="#012435" stroke="#012435"></path><path d="M0 454L0 509L89.1 439Z" fill="#021c2b" stroke="#021c2b"></path><path d="M1633.7 1080L1773.9 1080L1730.9 964Z" fill="#003651" stroke="#003651"></path><path d="M1920 977L1920 795L1812.9 797Z" fill="#012f45" stroke="#012f45"></path><path d="M0 509L92.1 535L89.1 439Z" fill="#021c2b" stroke="#021c2b"></path><path d="M0 509L0 646L92.1 535Z" fill="#003e5c" stroke="#003e5c"></path><path d="M92.1 535L0 646L184.1 708Z" fill="#022030" stroke="#022030"></path><path d="M120.1 944L0 1080L139.1 1080Z" fill="#003a56" stroke="#003a56"></path><path d="M1920 371L1790.9 245L1791.9 348Z" fill="#003a56" stroke="#003a56"></path><path d="M1791.9 348L1790.9 245L1690.7 284Z" fill="#003e5c" stroke="#003e5c"></path><path d="M0 454L89.1 439L0 239Z" fill="#012f45" stroke="#012f45"></path><path d="M0 646L0 839L140.1 784Z" fill="#00324b" stroke="#00324b"></path><path d="M0 239L89.1 439L147.1 251Z" fill="#01273b" stroke="#01273b"></path><path d="M0 839L0 894L120.1 944Z" fill="#00324b" stroke="#00324b"></path><path d="M1790.9 245L1728.9 83L1680.7 158Z" fill="#01273b" stroke="#01273b"></path><path d="M1920 795L1920 728L1812.9 797Z" fill="#01273b" stroke="#01273b"></path><path d="M1812.9 797L1920 728L1792.9 669Z" fill="#012435" stroke="#012435"></path><path d="M1920 728L1920 524L1798.9 590Z" fill="#003e5c" stroke="#003e5c"></path><path d="M1920 104L1742.9 0L1728.9 83Z" fill="#022030" stroke="#022030"></path><path d="M1920 977L1812.9 797L1730.9 964Z" fill="#021c2b" stroke="#021c2b"></path><path d="M287.3 0L167.1 0L232.3 130Z" fill="#003651" stroke="#003651"></path><path d="M159.1 158L0 239L147.1 251Z" fill="#003e5c" stroke="#003e5c"></path><path d="M1920 524L1920 371L1791.9 348Z" fill="#011926" stroke="#011926"></path><path d="M0 79L0 239L159.1 158Z" fill="#021c2b" stroke="#021c2b"></path><path d="M1773.9 1080L1920 977L1730.9 964Z" fill="#003a56" stroke="#003a56"></path><path d="M0 894L0 1080L120.1 944Z" fill="#022030" stroke="#022030"></path><path d="M1920 104L1728.9 83L1790.9 245Z" fill="#00324b" stroke="#00324b"></path><path d="M1728.9 83L1742.9 0L1588.7 0Z" fill="#022030" stroke="#022030"></path><path d="M1773.9 1080L1920 1080L1920 977Z" fill="#01273b" stroke="#01273b"></path><path d="M1920 371L1920 214L1790.9 245Z" fill="#012b40" stroke="#012b40"></path><path d="M167.1 0L0 79L159.1 158Z" fill="#021c2b" stroke="#021c2b"></path><path d="M1920 214L1920 104L1790.9 245Z" fill="#021c2b" stroke="#021c2b"></path><path d="M167.1 0L0 0L0 79Z" fill="#022030" stroke="#022030"></path><path d="M1920 104L1920 0L1742.9 0Z" fill="#012b40" stroke="#012b40"></path></g></svg>